<svg xmlns="http://www.w3.org/2000/svg" xmlns:xlink="http://www.w3.org/1999/xlink" fill="none" version="1.1" width="30" height="24" viewBox="0 0 30 24"><defs><clipPath id="master_svg0_11_4691"><rect x="0" y="0" width="30" height="24" rx="0"/></clipPath></defs><g clip-path="url(#master_svg0_11_4691)"><g transform="matrix(1,0,0,-1,0,46.054664611816406)"><g><path d="M15.093377313947677,44.03903230590821Q14.532677313947678,44.03903230590821,13.971877313947678,43.85153230590821L0.8877823139476776,39.1171323059082Q0.18684741394767762,38.7890323059082,0.14011843394767762,38.0390323059082Q0.18684741394767762,37.2890323059082,0.8877823139476776,36.9609323059082L3.5980673139476775,35.9765323059082Q2.4298373139476777,34.1484323059082,2.3831073139476775,31.851552305908204L2.3831073139476775,30.539052305908204Q2.2429173139476775,28.476552305908204,1.3550673139476777,26.742172305908202Q0.8877823139476776,25.851552305908204,0.2803053139476776,25.007802305908204Q0.04666051394767762,24.679672305908202,0.18684741394767762,24.304672305908202Q0.3270343139476776,23.929676305908202,0.7008663139476776,23.789051305908202L3.691517313947678,23.039051105908204Q4.018627313947677,22.992176105908204,4.298997313947678,23.132801305908202Q4.5326473139476775,23.320301305908202,4.626097313947677,23.648426305908202Q5.0933873139476775,26.742172305908202,4.5326473139476775,28.710922305908202Q4.298997313947678,29.742172305908202,3.8784373139476775,30.679672305908202L3.8784373139476775,31.851552305908204Q3.9251673139476777,34.0078323059082,5.186847313947678,35.6953323059082Q6.074697313947677,36.7734323059082,7.476567313947678,37.3359323059082L14.812977313947677,40.2421323059082Q15.467177313947678,40.4296323059082,15.794277313947678,39.8203323059082Q15.981277313947677,39.16403230590821,15.373777313947677,38.8359323059082L8.037317313947678,35.9765323059082Q7.149467313947677,35.6015323059082,6.541987313947677,34.9453323059082L13.971877313947678,32.2265523059082Q14.532677313947678,32.0390523059082,15.093377313947677,32.0390523059082Q15.654177313947677,32.0390523059082,16.214877313947678,32.2265523059082L29.298977313947677,36.9609323059082Q29.999977313947678,37.2890323059082,30.04667731394768,38.0390323059082Q29.999977313947678,38.7890323059082,29.298977313947677,39.1171323059082L16.214877313947678,43.85153230590821Q15.654177313947677,44.03903230590821,15.093377313947677,44.03903230590821ZM6.121427313947677,26.414052305908204Q6.214887313947678,25.101552305908204,8.738247313947678,24.117172305908202Q11.261577313947678,23.085926005908203,15.093377313947677,23.039051105908204Q18.925177313947678,23.085926005908203,21.448577313947677,24.117172305908202Q23.971877313947676,25.101552305908204,24.06537731394768,26.414052305908204L23.364377313947678,33.2109323059082L16.728877313947677,30.820302305908204Q15.934477313947678,30.539052305908204,15.093377313947677,30.539052305908204Q14.252277313947678,30.539052305908204,13.504577313947678,30.820302305908204L6.822357313947678,33.2109323059082L6.121427313947677,26.414052305908204Z" fill="#FF6B6B" fill-opacity="1" style="mix-blend-mode:passthrough"/></g></g></g></svg>