<svg data-v-0dd9719b="" version="1.0" xmlns="http://www.w3.org/2000/svg" xmlns:xlink="http://www.w3.org/1999/xlink"
    width="100%" height="100%" viewBox="0 0 250.000000 60.000000" preserveAspectRatio="xMidYMid meet"
    color-interpolation-filters="sRGB" style="margin: auto;">
    <rect data-v-0dd9719b="" x="0" y="0" width="100%" height="100%" fill="#fff" fill-opacity="1" class="background">
    </rect>
    <rect data-v-0dd9719b="" x="0" y="0" width="100%" height="100%" fill="url(#watermark)" fill-opacity="1"
        class="watermarklayer"></rect>
    <g data-v-0dd9719b="" fill="#3299bb" class="icon-text-wrapper icon-svg-group iconsvg"
        transform="translate(2,2)">
        <g class="iconsvg-imagesvg" transform="translate(0,0)">
            <g>
                <rect fill="#3299bb" fill-opacity="0" stroke-width="2" x="0" y="0" width="60" height="56.7982809053646"
                    class="image-rect"></rect> <svg x="0" y="0" width="60" height="56.7982809053646"
                    filtersec="colorsb9474976999" class="image-svg-svg primary" style="overflow: visible;"><svg
                        xmlns="http://www.w3.org/2000/svg" viewBox="8.419952392578125 0 844.570068359375 799.5">
                        <path fill="#3299BB"
                            d="M620.72 0c137.76 69.58 232.27 212.36 232.27 377.21 0 233.19-189.07 422.29-422.28 422.29-233.17 0-422.29-189.1-422.29-422.29C8.42 212.36 102.94 69.58 240.71 0 168.2 56.59 121.56 144.79 121.56 243.86c0 170.68 138.45 309.15 309.16 309.15 170.7 0 309.14-138.47 309.14-309.15C739.85 144.79 693.23 56.59 620.72 0z">
                        </path>
                        <path fill="#424242"
                            d="M386.25 64.02c103.78 0 187.94 84.12 187.94 187.9 0 103.77-84.16 187.9-187.94 187.9-103.76 0-187.91-84.13-187.91-187.9 0-103.77 84.16-187.9 187.91-187.9z">
                        </path>
                        <path fill="#F90"
                            d="M560.02 136.77c63.6 0 115.19 51.56 115.19 115.15s-51.59 115.16-115.19 115.16-115.16-51.57-115.16-115.16c0-63.59 51.56-115.15 115.16-115.15z">
                        </path>
                    </svg></svg>
                <!---->
            </g>
        </g>
        <g transform="translate(67,2.529142379760742)">
            <g data-gra="path-name" fill-rule="" class="tp-name iconsvg-namesvg" transform="translate(0,0)">
                <g transform="scale(1)">
                    <g>
                        <path
                            d="M15.45-20.12C15.65-20.15 15.7-20.27 15.7-20.38 15.7-20.44 15.7-20.47 15.68-20.53 15.53-20.79 15.27-21.02 14.93-21.02L14.87-21.02C13.22-20.79 12.47-20.01 12.47-19.05 12.47-18.71 12.59-18.36 12.76-17.99 13.74-15.7 16.92-14.43 19.23-14.43 21.68-14.43 23.9-15.5 24.97-16.72 25.78-17.61 26.18-18.71 26.18-19.8 26.18-20.5 26.01-21.22 25.69-21.91L25.66-21.94C24.08-25.17 19.89-26.44 16.02-26.44L15.85-26.44C9.44-26.42 5.23-23.56 5.23-20.3 5.23-19.69 5.37-19.08 5.66-18.48 6.7-16.31 9.7-14.15 15.16-12.67 10.05-11.63 6.73-10.05 4.71-8.23 2.94-6.61 2.19-4.82 2.19-3.03 2.19-2.02 2.43-1.01 2.86-0.03L3.09 0.4C5.51 5.51 10.36 7.33 15.7 7.33 19.31 7.33 22.4 6.5 25.12 5.23 29.59 3.09 34.01-1.04 36.78-4.65 36.81-4.71 36.84-4.73 36.84-4.79 36.84-4.85 36.81-4.91 36.78-4.97 36.66-5.23 36.32-5.43 36.03-5.43 35.91-5.43 35.83-5.4 35.74-5.31 35.28-4.68 34.7-3.96 34.01-3.2 29.85 1.41 23.87 6.44 15.24 6.44 10.54 6.44 6.32 4.97 4.13 0.43L3.93 0C3.52-0.89 3.32-1.79 3.32-2.71 3.32-4.36 4.01-6 5.66-7.51 7.79-9.44 11.63-11.11 17.61-12.15 17.78-12.18 17.87-12.3 17.87-12.41 17.87-12.47 17.84-12.53 17.81-12.59 17.73-12.79 17.52-12.96 17.23-13.02 10.91-14.35 7.71-16.43 6.67-18.53 6.44-19.02 6.32-19.52 6.32-20.01 6.32-22.95 10.51-25.52 16.28-25.55L16.31-25.55C19.6-25.55 23.33-24.65 24.65-21.94L24.68-21.91C24.94-21.33 25.09-20.76 25.09-20.15 25.09-19.2 24.71-18.22 24.02-17.41 22.95-16.22 21.19-15.39 18.77-15.33L18.65-15.33C16.46-15.33 14.38-16.69 13.77-17.99 13.66-18.25 13.57-18.51 13.57-18.74 13.57-19.4 14.12-19.95 15.45-20.12ZM63.31 6.06C63.28 6.09 63.28 6.15 63.28 6.21 63.28 6.26 63.28 6.32 63.31 6.38 63.45 6.64 63.83 6.84 64.09 6.84 64.21 6.84 64.29 6.81 64.38 6.73 65.59 4.85 66.08 1.07 66.31-3.2 71.45-0.72 76.79 3 81.96 3.06L82.05 3.06C87.76 3.06 91.57-0.29 94.86-4.65 94.89-4.71 94.92-4.73 94.92-4.79 94.92-4.85 94.89-4.91 94.86-4.97 94.72-5.23 94.37-5.43 94.11-5.43 94-5.43 93.91-5.4 93.83-5.31 90.68-1.13 86.95 2.17 81.5 2.17L81.44 2.17C76.85 2.11 71.65-1.39 66.86-3.75 72.26-4.47 76.36-5.86 79.28-7.62 83.52-10.1 85.4-13.31 85.4-16.14 85.4-17.12 85.16-18.07 84.73-18.91L84.56-19.23C80.83-25.98 70.47-29.16 59.93-29.16 46.31-29.16 32.42-23.82 32.42-14.03 32.42-12.1 32.97-10.02 34.15-7.74L34.3-7.48C36.38-3.72 41.23 0.69 46.94 3 47.09 3.06 47.17 3.06 47.26 3.06 47.46 3.06 47.55 2.94 47.55 2.8 47.55 2.74 47.52 2.68 47.49 2.6 47.4 2.45 47.23 2.31 47.03 2.22 41.72 0.06 37.21-4.04 35.28-7.51L35.16-7.71C34.04-9.84 33.55-11.84 33.55-13.66 33.55-23.12 47.26-28.23 60.48-28.23 70.47-28.23 80.14-25.35 83.52-19.23L83.66-18.94C84.07-18.19 84.27-17.35 84.27-16.46 84.27-13.86 82.45-10.83 78.38-8.4 75.52-6.73 71.57-5.37 66.37-4.65 66.46-6.73 66.49-8.83 66.51-10.88 66.57-16.66 66.63-21.77 67.73-22.49 67.81-22.55 67.84-22.6 67.84-22.69 67.84-22.75 67.81-22.84 67.79-22.89 67.73-22.98 67.67-23.04 67.61-23.1 67.41-23.27 67.24-23.33 67.06-23.33 65.45-23.33 65.42-15.65 65.39-11.29 65.33-9.06 65.3-6.76 65.22-4.53 62.79-5.6 60.86-6.12 59.56-6.12 58.86-6.12 58.34-5.98 58-5.69 57.68-5.43 57.57-5.05 57.57-4.65 57.57-4.33 57.62-4.04 57.77-3.78 57.94-3.46 58.2-3.23 58.58-3.23 60.94-3.23 63.14-3.35 65.19-3.55 64.96 0.61 64.49 4.3 63.31 6.06ZM58.69-4.13L58.69-4.19C58.69-4.91 59.15-5.23 60.05-5.23 60.89-5.23 62.07-4.94 63.63-4.36 62.07-4.21 60.42-4.16 58.69-4.13ZM121.8 6.06C121.77 6.09 121.77 6.15 121.77 6.21 121.77 6.26 121.77 6.32 121.8 6.38 121.94 6.61 122.32 6.84 122.61 6.84 122.72 6.84 122.81 6.81 122.9 6.73 124.17 4.79 124.63 0.78 124.86-3.67 130.2-4.33 134.3-5.66 137.3-7.33 141.86-9.84 143.88-13.19 143.88-16.11 143.88-17.12 143.65-18.04 143.22-18.91L143.05-19.23C139.32-25.98 128.93-29.16 118.42-29.16 104.77-29.16 90.91-23.85 90.91-14.06 90.91-12.13 91.46-10.02 92.64-7.74L92.79-7.48C94.86-3.72 99.71 0.69 105.43 3 105.57 3.06 105.66 3.06 105.75 3.06 105.95 3.06 106.07 2.94 106.07 2.8 106.07 2.74 106.04 2.66 106.01 2.6 105.92 2.45 105.75 2.31 105.55 2.22 100.26 0.09 95.76-3.98 93.83-7.45L93.68-7.71C92.55-9.84 92.06-11.84 92.06-13.66 92.06-23.12 105.75-28.23 119-28.23 128.96-28.23 138.66-25.35 142.04-19.23L142.18-18.94C142.56-18.19 142.76-17.35 142.76-16.48 142.76-13.74 140.82-10.6 136.38-8.14 133.58-6.58 129.8-5.34 124.89-4.65 124.95-6.73 124.98-8.83 125.03-10.88 125.09-16.66 125.12-21.77 126.22-22.49 126.3-22.55 126.33-22.6 126.33-22.69 126.33-22.75 126.3-22.84 126.27-22.89 126.22-22.98 126.16-23.04 126.1-23.1 125.9-23.27 125.73-23.33 125.55-23.33 123.94-23.33 123.91-15.65 123.88-11.29 123.82-9.06 123.82-6.73 123.73-4.5 121.48-4.24 119-4.13 116.31-4.13L114.87-4.13C114.67-4.13 114.58-4.04 114.58-3.93 114.58-3.84 114.61-3.78 114.64-3.7 114.76-3.49 115.07-3.26 115.39-3.23 115.91-3.23 116.43-3.2 116.92-3.2 119.37-3.2 121.6-3.35 123.68-3.55 123.47 0.61 122.98 4.3 121.8 6.06ZM147.84 0.95L147.87 0.95C149.86 5.11 153.44 8.55 158.55 8.66L158.9 8.66C168.11 8.66 177.4-0.06 180.92-4.65 180.95-4.71 180.98-4.73 180.98-4.79 180.98-4.85 180.95-4.91 180.92-4.97 180.81-5.23 180.43-5.43 180.17-5.43 180.06-5.43 179.97-5.4 179.88-5.31 175.44 0.46 166.37 7.77 158.67 7.77 154.94 7.77 151.33 6.06 148.88 0.95 147.49-1.91 146.77-5.34 146.77-8.78 146.77-17.15 151.07-25.52 160.43-25.55 164.79-25.55 169.2-23.24 171.02-19.46 171.54-18.36 171.8-17.26 171.8-16.2 171.8-11.26 166.75-6.96 161.38-6.96L160.86-6.96C159.01-7.04 157.37-7.65 156.53-9.35L156.38-9.64C156.3-9.9 156.24-10.22 156.24-10.57 156.24-11.75 156.82-13.25 158.23-14.61 159.39-15.65 161.06-16.51 163.4-16.63 163.6-16.63 163.69-16.72 163.69-16.86 163.69-16.92 163.66-17 163.63-17.06 163.54-17.29 163.26-17.52 162.94-17.52L162.91-17.52C160.34-17.41 158.52-16.48 157.31-15.33 155.72-13.83 155.11-11.89 155.11-10.71 155.11-10.51 155.14-10.31 155.17-10.16 155.26-9.87 155.4-9.58 155.52-9.3 156.62-7.07 158.98-6.03 161.7-6.03 164.76-6.03 168.19-7.36 170.44-9.84 172.15-11.75 172.9-13.8 172.9-15.76 172.9-17.03 172.61-18.27 172.03-19.46 170.13-23.41 165.36-26.44 159.99-26.44 150.15-26.42 145.65-17.78 145.65-9.12 145.65-5.57 146.4-2.02 147.84 0.95Z"
                            transform="translate(-2.190000057220459, 29.15999984741211)"></path>
                    </g>
                    <!---->
                    <!---->
                    <!---->
                    <!---->
                    <!---->
                    <!---->
                    <!---->
                </g>
            </g>
            <g data-gra="path-slogan" fill-rule="" class="tp-slogan iconsvg-slogansvg" fill="#3299bb"
                transform="translate(5,43.81999969482422)">
                <rect x="0" height="1" y="3.4600000381469727" width="43.27999496459961"></rect>
                <rect height="1" y="3.4600000381469727" width="43.27999496459961" x="125.5099983215332"></rect>
                <g transform="translate(46.27999496459961,0)">
                    <g transform="scale(0.29)">
                        <text transform="translate(-1.068, 18)">
                            Education Rewards Plan of Children
                        </text>
                        <!-- <path
                            d="M1.07-7.92L1.07 0L6.78 0L6.78-7.92ZM3.37-4.08L1.85-1.32L1.85-6.86ZM5.98-1.32L4.46-4.08L5.98-6.86ZM5.45-0.70L2.36-0.70L3.25-2.28L3.90-3.52L3.95-3.52L4.57-2.28ZM3.95-4.64L3.90-4.64L3.30-5.77L2.51-7.20L5.33-7.20L4.54-5.77ZM8.90-7.92L8.90 0L14.62 0L14.62-7.92ZM11.21-4.08L9.68-1.32L9.68-6.86ZM13.81-1.32L12.30-4.08L13.81-6.86ZM13.28-0.70L10.20-0.70L11.09-2.28L11.74-3.52L11.78-3.52L12.41-2.28ZM11.78-4.64L11.74-4.64L11.14-5.77L10.34-7.20L13.16-7.20L12.37-5.77ZM16.74-7.92L16.74 0L22.45 0L22.45-7.92ZM19.04-4.08L17.52-1.32L17.52-6.86ZM21.65-1.32L20.14-4.08L21.65-6.86ZM21.12-0.70L18.04-0.70L18.92-2.28L19.57-3.52L19.62-3.52L20.24-2.28ZM19.62-4.64L19.57-4.64L18.97-5.77L18.18-7.20L21-7.20L20.21-5.77ZM24.58-7.92L24.58 0L30.29 0L30.29-7.92ZM26.88-4.08L25.36-1.32L25.36-6.86ZM29.48-1.32L27.97-4.08L29.48-6.86ZM28.96-0.70L25.87-0.70L26.76-2.28L27.41-3.52L27.46-3.52L28.08-2.28ZM27.46-4.64L27.41-4.64L26.81-5.77L26.02-7.20L28.84-7.20L28.04-5.77ZM32.41-7.92L32.41 0L38.12 0L38.12-7.92ZM34.72-4.08L33.19-1.32L33.19-6.86ZM37.32-1.32L35.81-4.08L37.32-6.86ZM36.79-0.70L33.71-0.70L34.60-2.28L35.24-3.52L35.29-3.52L35.92-2.28ZM35.29-4.64L35.24-4.64L34.64-5.77L33.85-7.20L36.67-7.20L35.88-5.77ZM40.25-7.92L40.25 0L45.96 0L45.96-7.92ZM42.55-4.08L41.03-1.32L41.03-6.86ZM45.16-1.32L43.64-4.08L45.16-6.86ZM44.63-0.70L41.54-0.70L42.43-2.28L43.08-3.52L43.13-3.52L43.75-2.28ZM43.13-4.64L43.08-4.64L42.48-5.77L41.69-7.20L44.51-7.20L43.72-5.77ZM48.08-7.92L48.08 0L53.80 0L53.80-7.92ZM50.39-4.08L48.86-1.32L48.86-6.86ZM52.99-1.32L51.48-4.08L52.99-6.86ZM52.46-0.70L49.38-0.70L50.27-2.28L50.92-3.52L50.96-3.52L51.59-2.28ZM50.96-4.64L50.92-4.64L50.32-5.77L49.52-7.20L52.34-7.20L51.55-5.77ZM55.92-7.92L55.92 0L61.63 0L61.63-7.92ZM58.22-4.08L56.70-1.32L56.70-6.86ZM60.83-1.32L59.32-4.08L60.83-6.86ZM60.30-0.70L57.22-0.70L58.10-2.28L58.75-3.52L58.80-3.52L59.42-2.28ZM58.80-4.64L58.75-4.64L58.15-5.77L57.36-7.20L60.18-7.20L59.39-5.77ZM63.76-7.92L63.76 0L69.47 0L69.47-7.92ZM66.06-4.08L64.54-1.32L64.54-6.86ZM68.66-1.32L67.15-4.08L68.66-6.86ZM68.14-0.70L65.05-0.70L65.94-2.28L66.59-3.52L66.64-3.52L67.26-2.28ZM66.64-4.64L66.59-4.64L65.99-5.77L65.20-7.20L68.02-7.20L67.22-5.77ZM71.59-7.92L71.59 0L77.30 0L77.30-7.92ZM73.90-4.08L72.37-1.32L72.37-6.86ZM76.50-1.32L74.99-4.08L76.50-6.86ZM75.97-0.70L72.89-0.70L73.78-2.28L74.42-3.52L74.47-3.52L75.10-2.28ZM74.47-4.64L74.42-4.64L73.82-5.77L73.03-7.20L75.85-7.20L75.06-5.77Z"
                            transform="translate(-1.068, 7.92)"></path> -->
                    </g>
                </g>
            </g>
        </g>
    </g>
    <defs v-gra="od"></defs>
</svg>